<?xml version="1.0" encoding="utf-8"?>
<!-- Generator: Adobe Illustrator 21.1.0, SVG Export Plug-In . SVG Version: 6.00 Build 0)  -->
<svg version="1.1" id="Layer_1" xmlns="http://www.w3.org/2000/svg" xmlns:xlink="http://www.w3.org/1999/xlink" x="0px" y="0px"
	 viewBox="0 0 112 100" style="enable-background:new 0 0 112 100;" xml:space="preserve">
<style type="text/css">
	.st0{fill:#FFFFFF;}
	.st1{opacity:0.4;fill:#FFFFFF;}
</style>
<g>
	<g>
		<g>
			<path class="st0" d="M43.5,29.9l2.4-9.7c-3.7,1.4-7.3,2.8-10.7,4.1l-6.9,10.4C33,33.3,38.1,31.6,43.5,29.9z"/>
			<path class="st0" d="M28.4,34.6l6.9-10.4c-2.9,1.1-5.6,2.2-8.2,3.3l-8.8,10C21.3,36.7,24.7,35.7,28.4,34.6z"/>
			<path class="st0" d="M18.3,37.5l8.9-10c-2.9,1.2-5.6,2.4-8.1,3.5l-8.9,8.5C12.4,39,15.2,38.4,18.3,37.5z"/>
			<path class="st0" d="M10.1,39.5L19,31c-2.5,1.1-4.7,2.1-6.7,3.1l-7,6.1C6.5,40.2,8.1,39.9,10.1,39.5z"/>
			<path class="st0" d="M6.9,37l-3.3,2.8c0.1,0.3,0.7,0.4,1.8,0.4l7-6.1C10.1,35.2,8.3,36.2,6.9,37z"/>
			<path class="st0" d="M10.1,39.4C9.6,40.2,8,42,5.3,40.2"/>
			<path class="st0" d="M18.3,37.5c-1,0.9-4.2,3.3-8.2,2"/>
			<path class="st0" d="M28.3,34.7c-0.5,1.5-5,4.8-10.1,2.8"/>
			<path class="st0" d="M43.5,29.8C42,32.7,33,36.1,28.3,34.6"/>
			<path class="st0" d="M3.6,39.8l-0.1-0.2c0.9-0.2,1.8,0.5,1.8,0.5C5.4,40.4,4.8,42.3,3.6,39.8z"/>
		</g>
		<path class="st0" d="M75.4,18.1C61.7,29.4,43.5,29.8,43.5,29.8l0,0C48.6,27.9,70.1,20,75.4,18.1z"/>
		<path class="st0" d="M74.9,18.3l-8.1-5.9c3.8-1.3,7.4-2.6,10.8-3.7l12,3.5C85.1,14.1,80.2,16.2,74.9,18.3z"/>
		<path class="st0" d="M89.5,12.2l-12-3.5c2.9-1,5.7-1.9,8.4-2.7l13.2,1.9C96.3,9.2,93.1,10.7,89.5,12.2z"/>
		<path class="st0" d="M99.1,7.9L85.9,6c3-1,5.9-1.8,8.4-2.6l12.3,0.7C104.6,5.2,102.1,6.5,99.1,7.9z"/>
		<path class="st0" d="M106.6,4.1L94.4,3.4c2.6-0.8,5-1.4,7.1-1.9l9.3,0.1C109.9,2.3,108.5,3.1,106.6,4.1z"/>
		<path class="st0" d="M107.5,0.2l4.3,0c0.1,0.3-0.3,0.8-1.1,1.4l-9.3-0.1C103.9,0.9,105.9,0.4,107.5,0.2z"/>
		<path class="st0" d="M107.9,0"/>
		<polygon class="st0" points="50.9,0.9 50.9,0.7 50.9,0.8 51,0.7 51,0.8 75.3,18.1 59.4,23.9 59.4,24 43.5,29.8 		"/>
		<path class="st0" d="M106.6,4.1c0.9,0.3,3.3,0.6,4.1-2.5"/>
		<path class="st0" d="M99.1,7.9c1.4,0.1,5.4-0.1,7.5-3.8"/>
		<path class="st0" d="M89.6,12.2c1.4,0.8,6.9,0.4,9.5-4.4"/>
		<path class="st0" d="M75.3,18.1c2.9,1.3,11.7-1.8,14.3-5.9"/>
		<path class="st0" d="M111.8,0.2L111.8,0c-0.9,0.5-1.1,1.6-1,1.6C110.9,1.8,112.5,2.8,111.8,0.2z"/>
	</g>
	<g>
		<polygon class="st0" points="5.4,40.2 5.4,40.2 5.4,40.2 		"/>
		<path class="st1" d="M3.8,39.6l3-2.6c1.4-0.8,3.2-1.8,5.5-2.9l0,0c0,0,0,0,0,0c0,0,0,0,0,0l0,0c1.5-0.7,4.2-1.9,6.4-2.9l0.2-0.2
			c2.4-1.1,5.1-2.2,8.1-3.5l0,0c0,0,0,0,0,0c0,0,0,0,0,0l0,0c2.5-1.1,5.2-2.1,8-3.3l0,0c3.4-1.3,6.9-2.7,10.7-4.1l-1,4.2l6-23.5
			l-0.1-0.1l0.1,0.1l0-0.1L51,0.8l16.1,11.4c3.7-1.3,7.2-2.5,10.5-3.6l0,0c2.9-1,5.6-1.9,8.2-2.7l0,0c0,0,0,0,0,0c0,0,0,0,0,0l0,0
			c3-0.9,5.8-1.8,8.4-2.5l0.1,0c2.4-0.7,5.1-1.5,7-1.9l0,0c0,0,0,0,0,0c0,0,0,0,0,0l0,0c2.4-0.6,4.5-1,6.1-1.3l4.3,0
			c0.1,0.3-0.3,0.8-1.1,1.4l0,0c0,0,0,0,0,0c0,0,0,0,0,0l0,0c0,0,0,0,0,0c-0.8,3-3.1,2.7-4,2.5c0,0,0,0,0,0l-0.3,0l0.3,0l0,0
			c-2.1,3.6-6.1,3.8-7.5,3.8l0.2-0.1c-0.1,0-0.1,0.1-0.2,0.1l0,0c0,0-0.1,0-0.1,0c-2.6,4.7-8,5.1-9.4,4.3l0.6-0.3
			c-0.2,0.1-0.4,0.2-0.6,0.2l0,0c0,0,0,0,0,0c0,0,0,0,0,0c-2.6,4.1-11.3,7.2-14.2,5.9c0,0,0,0,0,0c0,0,0,0,0,0l0,0l0,0
			C62,29.1,44.5,29.7,43.5,29.8l0,0.1c0,0,0,0,0,0c-1.6,2.9-10.4,6.2-15.1,4.8c0,0,0,0,0,0c0,0,0,0,0,0l0,0
			c-0.2,0.1-0.4,0.1-0.6,0.2l0.6-0.2c-0.5,1.5-4.9,4.7-9.9,2.8c0,0-0.1,0-0.1,0l0,0c-0.1,0-0.1,0-0.2,0.1l0.2-0.1
			c-1,0.9-4.2,3.3-8.2,2l0,0l0.1-0.1l-0.1,0.1c0,0,0,0-0.1,0C9.6,40.3,8,42,5.4,40.2c0,0,0,0,0,0l0,0c0,0,0,0,0,0c0,0,0,0,0,0l0,0
			l0,0l0,0c0,0.2-0.6,2-1.7-0.3c0,0,0,0,0-0.1l-0.1-0.2C3.6,39.6,3.7,39.6,3.8,39.6z"/>
	</g>
	<path class="st0" d="M24.3,30.1c10.9-0.9,21.7-1.8,32.6-2.7c-8.7-0.7-17.4-1.4-26.1-2.1c-0.6-0.1-0.4-1,0.2-1
		c9.3,0.7,18.6,1.5,28,2.2c-3-1.5-6-3-9-4.5c-0.6-0.3-0.1-1.1,0.4-0.9c2.9,1.5,5.9,3,8.8,4.4c-0.7-1.8-1.3-3.7-2-5.5c0,0,0,0,0-0.1
		c-0.4-1.2,1.4-1.8,1.8-0.6c0.6,1.6,1.2,3.2,1.8,4.8c0.5-2.6,1-5.2,1.4-7.8c0.1-0.6,1.1-0.4,1,0.2c-0.5,2.9-1.1,5.9-1.6,8.8
		c5.7-6.4,11.5-12.8,17.2-19.3c0.4-0.5,1.1,0.2,0.7,0.6c-5.1,5.7-10.2,11.4-15.3,17.1C72.2,18.1,80.1,12.3,88,6.5
		c0.5-0.4,1,0.4,0.5,0.8C79.6,13.8,70.7,20.4,61.8,27c9.1,24.9,16.3,43.3,22.7,60.9c0,0,0,0,0,0c0.3,0.8-1.5,1.5-1.8,0.6
		C76.3,71,69.2,52.8,60.2,28c-0.1,0-0.1,0.1-0.2,0.1c-11.9,1-23.7,2-35.6,3C23.7,31.1,23.6,30.1,24.3,30.1z"/>
	<path class="st1" d="M24.3,30.1c10.9-0.9,21.7-1.8,32.6-2.7c-8.7-0.7-17.4-1.4-26.1-2.1c-0.6-0.1-0.4-1,0.2-1
		c9.3,0.7,18.6,1.5,28,2.2c-3-1.5-6-3-9-4.5c-0.6-0.3-0.1-1.1,0.4-0.9c2.9,1.5,5.9,3,8.8,4.4c-0.7-1.8-1.3-3.7-2-5.5c0,0,0,0,0-0.1
		c-0.4-1.2,1.4-1.8,1.8-0.6c0.6,1.6,1.2,3.2,1.8,4.8c0.5-2.6,1-5.2,1.4-7.8c0.1-0.6,1.1-0.4,1,0.2c-0.5,2.9-1.1,5.9-1.6,8.8
		c5.7-6.4,11.5-12.8,17.2-19.3c0.4-0.5,1.1,0.2,0.7,0.6c-5.1,5.7-10.2,11.4-15.3,17.1C72.2,18.1,80.1,12.3,88,6.5
		c0.5-0.4,1,0.4,0.5,0.8C79.6,13.8,70.7,20.4,61.8,27c0.3,0.8,0.6,1.6,0.9,2.4c-0.6,0.3-1.2,0.6-1.7,0.9c-0.3-0.7-0.5-1.5-0.8-2.2
		c-0.1,0-0.1,0.1-0.2,0.1c-11.9,1-23.7,2-35.6,3C23.7,31.1,23.6,30.1,24.3,30.1z"/>
	<g>
		<path class="st0" d="M50.9,0.7L76.1,9c0,0,15.4,6.3,22.9-6.7L50.9,0.7z"/>
		<path class="st0" d="M35.5,24.4c0,0,26.4,6.1,41-15.2L50.9,0.7L35.5,24.4z"/>
		<path class="st0" d="M10.5,35.4L50.9,0.7L35.5,24.4C35.5,24.4,30.1,38.6,10.5,35.4"/>
		<path class="st0" d="M51,0.8L2,40.9c0,0,8.1,1.6,8.7-5.5L51,0.8z"/>
		<path class="st0" d="M111.6,0.2C110.7,1.3,106,6.1,99,2.3L50.9,0.7L110.7,0"/>
		<path class="st0" d="M76.5,9.2c8.7-2.9,16.3-5.3,22.2-6.9l0.3,0C92.2,14.1,78.9,10,76.5,9.2z"/>
		<path class="st0" d="M76.5,9.2c-14.6,21.3-41,15.2-41,15.2l0,0c6.1-2.5,12.9-5.1,19.9-7.7C62.9,13.9,70,11.4,76.5,9.2z"/>
		<path class="st0" d="M35.6,24.4L35.6,24.4c0,0-5.4,14.3-25.1,11.1C16.4,32.4,25.1,28.6,35.6,24.4z"/>
		<path class="st0" d="M2.1,40.8L5,38.4c1.4-0.9,3.3-1.9,5.7-3.1C10.1,42,3,41,2.1,40.9C2.1,40.8,2.1,40.8,2.1,40.8z"/>
		<path class="st0" d="M110,0l0.7,0l0,0l1.1,0c0,0,0,0.1-0.1,0.2l0,0c0,0,0,0,0,0c0,0,0,0,0,0l0,0C110.7,1.3,106,6.1,99,2.3l-0.4,0
			C103.9,0.9,107.8,0.1,110,0z"/>
	</g>
</g>
<g>
	<path class="st0" d="M45.7,35.6c13.2,16.7,26.4,33.5,39.6,50.2c1.3,1.7,2.7,3.4,4,5.1c1.3,1.6,4-0.1,2.7-1.8
		C78.8,72.5,65.6,55.7,52.4,39c-1.3-1.7-2.7-3.4-4-5.1C47.2,32.3,44.4,34,45.7,35.6"/>
	<path class="st0" d="M62,50.9c-3.1,9.7-6.1,19.5-9.2,29.2c-0.6,2,2.5,2.7,3.1,0.7c3.1-9.7,6.1-19.5,9.2-29.2
		C65.7,49.6,62.6,48.9,62,50.9"/>
	<path class="st0" d="M61.9,51C61.9,51.2,62,50.9,61.9,51c0.9-1.4,3.8-0.6,2.4,3.1c0.1-0.2,0.7-2.2,0.7-2.4
		C65.8,49.5,62.5,48.7,61.9,51"/>
	<path class="st0" d="M88.6,65.9c0,0-0.5-0.8-2.1-0.3l-2.6,0.9l1.6,2.7l2.7-1C88.2,68.3,89.5,67.3,88.6,65.9"/>
	<path class="st0" d="M46.4,33.4c-0.9,0.4-1.3,1.4-0.8,2.1C57.7,52.1,71,67.8,83.8,83.9c1.9,2.4,3.8,4.8,5.6,7.2
		c0.6,0.8,1.6,0.7,2.3,0.2L46.4,33.4z"/>
	<path class="st0" d="M25.5,44c7.7-1.4,15.4-2.8,23.1-4.1c2-0.4,1.8-3.6-0.1-3.2c-7.7,1.4-15.4,2.8-23.1,4.1
		C23.4,41.1,23.5,44.4,25.5,44"/>
	<path class="st0" d="M24.1,43.2c0.1,0.8,0.6,1.4,1.6,1.2c7.7-1.5,15.4-3.1,23-4.6c0.9-0.2,1.3-0.9,1.4-1.7L24.1,43.2z"/>
	<path class="st0" d="M63.8,93.8c7.4-2.7,14.7-5.3,22.1-8c0.4-0.2,0.7-0.3,1.1-0.5c1.1-0.6-0.3-3.1-1.8-2.6
		c-7.4,2.7-14.7,5.3-22.1,8C61.2,91.3,62.3,94.4,63.8,93.8"/>
	<path class="st0" d="M62.4,93.2c0.4,0.7,0.7,1.3,1.6,1c7.3-2.8,14.6-5.6,22-8.4c0.4-0.1,1.2-0.3,1-0.5c-0.2-0.3-0.4-0.6-0.8-1
		L62.4,93.2z"/>
	<g>
		<g>
			<path class="st0" d="M85.9,67.5c0,0-0.3-1.4-2.6-0.8l-7.7,2.8C58.6,70,48.8,38.3,48.8,38.3c-0.4-1.2-1.6-1.5-1.6-1.5l-20.8,3.7
				c0,0,1.5,0.4,1.9,1.8l0,0c0.4,1.9,10.7,48.8,40.3,29.9l0,0c0.5,0.1,1,0.3,1.2,1c0,0,0.1,1.5-2.4,2.4l18.3-6.5
				C85.6,69.2,86.4,68.4,85.9,67.5z"/>
		</g>
		<g>
			<g>
				<g>
					<path class="st0" d="M82.4,69.7l-0.1-0.1l0-0.1c-0.1-0.3-0.7-0.6-1.9-0.3l-8.2,3l-0.1,0c-0.2,0-0.3,0-0.5,0
						c-4.1,0-8.1-1.7-12-5.1c-3.1-2.7-6.2-6.6-9-11.5c-4.8-8.1-7.4-16.4-7.5-16.8C42.9,38,42,37.8,42,37.8l0,0l2-0.4
						c0.2,0.3,0.4,0.6,0.5,1l0,0c0,0.1,2.6,8.4,7.4,16.5c2.8,4.7,5.7,8.5,8.7,11.1c3.7,3.2,8.1,4.8,12,4.7l7.5-2.9l0,0
						c1.1-0.3,2.1-0.2,2.7,0.2c0.6,0.4,0.8,0.9,0.9,1.1"/>
				</g>
				<g>
					<path class="st0" d="M78,71.5l-0.1-0.4l0.1-0.1c0,0,0,0,0,0l-0.1,0l-0.1-0.1c-0.2-0.2-0.6-0.2-1.1-0.1
						c-1.3,0.7-7.8,3.1-8.5,3.3l0,0l0,0C67.5,74,67,74,66.4,74c-4.1,0-8-1.5-11.7-4.6c-3.3-2.7-6.5-6.7-9.4-11.7
						C40.6,49.4,38.1,41,37.8,40c0,0,0,0,0,0l0,0c-0.3-0.9-1.2-1.2-1.3-1.2c0,0-0.1,0,0,0l2-0.4l0,0c0.2,0.3,0.5,0.6,0.6,1
						c0,0,0,0,0,0.1l0,0l0,0c0.1,0.2,2.5,9,7.5,17.6c2.8,4.9,5.8,8.6,9,11.2c3.9,3.2,8,4.6,12.2,4.2c0.9-0.2,7.4-2.7,8.1-3.1
						l0.1-0.1l0.1,0c1.2-0.2,1.9,0.1,2.3,0.4c0.4,0.2,0.7,0.6,0.8,1c0,0.2,0,0.4,0,0.6"/>
				</g>
				<g>
					<path class="st0" d="M72.7,72.2c-1.9,1.1-7.3,3.2-8.8,3.6l-0.1,0c-0.9,0.1-1.8,0.2-2.7,0.2c-4,0-7.9-1.4-11.5-4.2
						C46.2,69,43,65,40,59.8c-1.5-2.6-3.6-6.8-5.7-12.6c-1.2-3.2-1.8-5.6-1.9-6.2c0,0,0,0,0,0C32,40,31,39.7,31,39.7l2-0.3l0,0
						c0.3,0.3,0.5,0.6,0.7,1.1c0,0,0,0.1,0,0.1l0,0l0,0c0,0.1,2.4,9.5,7.5,18.5c2.9,5,6,8.9,9.4,11.5c4.1,3.2,8.5,4.4,13,3.8"/>
					<path class="st0" d="M73.7,72.6C73.7,72.6,73.7,72.6,73.7,72.6"/>
				</g>
			</g>
		</g>
	</g>
	<path class="st0" d="M67.8,72.3c0.5,0.1,1.3,0.2,1.6,0.9c0,0,0.1,1.7-2.5,2.6l18.7-6.6c0,0,0.8-1,0.3-2c0,0-0.3-1.5-2.7-0.8"/>
	<path class="st0" d="M21.5,41.1C34.8,58,48,74.9,61.2,91.8c2,2.5,3.9,5,5.9,7.5c1.3,1.6,4-0.1,2.7-1.8
		C56.5,80.6,43.3,63.7,30.1,46.8c-2-2.5-3.9-5-5.9-7.5C23,37.7,20.3,39.4,21.5,41.1"/>
	<path class="st0" d="M21.8,39.1c-0.8,0.4-1.2,1.3-0.5,2.2C34.6,58.1,47.9,75,61.1,91.8c2,2.5,3.9,5,5.9,7.5
		c0.6,0.8,1.6,0.8,2.3,0.3L21.8,39.1z"/>
	<path class="st0" d="M30.5,89.3c2.9-10,5.8-19.9,8.7-29.9c0.6-2-2.6-2.7-3.1-0.7c-2.9,10-5.8,19.9-8.7,29.9
		C26.8,90.6,29.9,91.3,30.5,89.3"/>
	<path class="st0" d="M25.7,91.9c14.3-5.6,28.7-11.2,43-16.8c1.9-0.8,0.9-3.8-1-3.1c-14.3,5.6-28.7,11.2-43,16.8
		C22.8,89.6,23.8,92.6,25.7,91.9"/>
	<path class="st0" d="M23.8,91c0.3,0.8,1,1.3,1.9,0.9c14.4-5.6,28.7-11.2,43.1-16.8c0.9-0.4,1.2-1.3,1-2L23.8,91z"/>
</g>
</svg>
