<?xml version="1.0" encoding="utf-8"?>
<!-- Generator: Adobe Illustrator 21.1.0, SVG Export Plug-In . SVG Version: 6.00 Build 0)  -->
<svg version="1.1" id="Layer_1" xmlns="http://www.w3.org/2000/svg" xmlns:xlink="http://www.w3.org/1999/xlink" x="0px" y="0px"
	 viewBox="0 0 100 100" style="enable-background:new 0 0 100 100;" xml:space="preserve">
<style type="text/css">
	.st0{fill:#FFFFFF;}
</style>
<g>
	<path class="st0" d="M50,0C22.4,0,0,22.4,0,50c0,27.6,22.4,50,50,50s50-22.4,50-50C100,22.4,77.6,0,50,0z M53.8,92.3v-3.4
		c0-2.1-1.7-3.8-3.8-3.8s-3.8,1.7-3.8,3.8v3.4C25.8,90.5,9.5,74.1,7.7,53.7H11c2.1,0,3.8-1.7,3.8-3.8s-1.7-3.8-3.8-3.8H7.7
		C9.6,25.8,25.9,9.5,46.2,7.7v3.1c0,2.1,1.7,3.8,3.8,3.8s3.8-1.7,3.8-3.8V7.7c20.4,1.8,36.6,18,38.5,38.4H89c-2.1,0-3.8,1.7-3.8,3.8
		s1.7,3.8,3.8,3.8h3.3C90.5,74.1,74.2,90.5,53.8,92.3z"/>
	<path class="st0" d="M72.5,25.6L50.1,49.1c0,0-0.1,0-0.1,0c-0.3,0-0.6,0-0.8,0.1L30.5,35c-1.2-0.9-3-0.7-4,0.6
		c-0.9,1.2-0.7,3,0.6,4l18.7,14.1c0.2,2.2,2,3.9,4.2,3.9c2.3,0,4.2-1.9,4.2-4.2c0-0.1,0-0.2,0-0.3l22.3-23.4c1.1-1.1,1-2.9-0.1-4
		C75.4,24.5,73.6,24.5,72.5,25.6z"/>
</g>
</svg>
